<mxfile host="Electron" agent="Mozilla/5.0 (Windows NT 10.0; Win64; x64) AppleWebKit/537.36 (KHTML, like Gecko) draw.io/26.0.16 Chrome/132.0.6834.196 Electron/34.2.0 Safari/537.36" version="26.0.16">
  <diagram name="Page-1" id="9f4_ZFCDbfuMipKlCm3a">
    <mxGraphModel dx="1050" dy="621" grid="0" gridSize="10" guides="1" tooltips="1" connect="1" arrows="1" fold="1" page="1" pageScale="1" pageWidth="1100" pageHeight="850" math="0" shadow="0">
      <root>
        <mxCell id="0" />
        <mxCell id="1" parent="0" />
        <mxCell id="hdRCe8LsqeNPPLX8_d2w-1" value="Quản lý TK cá nhân" style="shape=umlFrame;whiteSpace=wrap;html=1;pointerEvents=0;recursiveResize=0;container=1;collapsible=0;width=141;height=35;" parent="1" vertex="1">
          <mxGeometry x="325" y="159" width="324" height="470" as="geometry" />
        </mxCell>
        <mxCell id="hdRCe8LsqeNPPLX8_d2w-12" value="Đăng ký" style="ellipse;whiteSpace=wrap;html=1;" parent="hdRCe8LsqeNPPLX8_d2w-1" vertex="1">
          <mxGeometry x="173" y="43" width="90" height="40" as="geometry" />
        </mxCell>
        <mxCell id="hdRCe8LsqeNPPLX8_d2w-13" value="Đăng nhập" style="ellipse;whiteSpace=wrap;html=1;" parent="hdRCe8LsqeNPPLX8_d2w-1" vertex="1">
          <mxGeometry x="155" y="241" width="100" height="40" as="geometry" />
        </mxCell>
        <mxCell id="hdRCe8LsqeNPPLX8_d2w-14" value="Lấy lại mật khẩu" style="ellipse;whiteSpace=wrap;html=1;" parent="hdRCe8LsqeNPPLX8_d2w-1" vertex="1">
          <mxGeometry x="53" y="139" width="110" height="40" as="geometry" />
        </mxCell>
        <mxCell id="hdRCe8LsqeNPPLX8_d2w-15" value="Chỉnh sửa&lt;div&gt;thông tin cá nhân&lt;/div&gt;" style="ellipse;whiteSpace=wrap;html=1;" parent="hdRCe8LsqeNPPLX8_d2w-1" vertex="1">
          <mxGeometry x="75" y="357" width="150" height="50" as="geometry" />
        </mxCell>
        <mxCell id="hdRCe8LsqeNPPLX8_d2w-24" value="&amp;lt;&amp;lt;include&amp;gt;&amp;gt;" style="html=1;verticalAlign=bottom;labelBackgroundColor=none;endArrow=open;endFill=0;dashed=1;rounded=0;exitX=0.5;exitY=0;exitDx=0;exitDy=0;entryX=0.5;entryY=1;entryDx=0;entryDy=0;" parent="hdRCe8LsqeNPPLX8_d2w-1" source="hdRCe8LsqeNPPLX8_d2w-13" target="hdRCe8LsqeNPPLX8_d2w-12" edge="1">
          <mxGeometry x="-0.2764" y="-26" width="160" relative="1" as="geometry">
            <mxPoint x="292" y="323" as="sourcePoint" />
            <mxPoint x="452" y="323" as="targetPoint" />
            <mxPoint as="offset" />
          </mxGeometry>
        </mxCell>
        <mxCell id="hdRCe8LsqeNPPLX8_d2w-26" value="&amp;lt;&amp;lt;extend&amp;gt;&amp;gt;" style="html=1;verticalAlign=bottom;labelBackgroundColor=none;endArrow=open;endFill=0;dashed=1;rounded=0;exitX=0.5;exitY=1;exitDx=0;exitDy=0;entryX=0.383;entryY=0.04;entryDx=0;entryDy=0;entryPerimeter=0;" parent="hdRCe8LsqeNPPLX8_d2w-1" source="hdRCe8LsqeNPPLX8_d2w-14" target="hdRCe8LsqeNPPLX8_d2w-13" edge="1">
          <mxGeometry x="0.14" y="-22" width="160" relative="1" as="geometry">
            <mxPoint x="292" y="323" as="sourcePoint" />
            <mxPoint x="191" y="243" as="targetPoint" />
            <mxPoint as="offset" />
          </mxGeometry>
        </mxCell>
        <mxCell id="hdRCe8LsqeNPPLX8_d2w-27" value="&amp;lt;&amp;lt;include&amp;gt;&amp;gt;" style="html=1;verticalAlign=bottom;labelBackgroundColor=none;endArrow=open;endFill=0;dashed=1;rounded=0;exitX=0.5;exitY=0;exitDx=0;exitDy=0;entryX=0.5;entryY=1;entryDx=0;entryDy=0;" parent="hdRCe8LsqeNPPLX8_d2w-1" source="hdRCe8LsqeNPPLX8_d2w-15" target="hdRCe8LsqeNPPLX8_d2w-13" edge="1">
          <mxGeometry x="-0.2428" y="-29" width="160" relative="1" as="geometry">
            <mxPoint x="322" y="133" as="sourcePoint" />
            <mxPoint x="232" y="103" as="targetPoint" />
            <mxPoint x="-1" as="offset" />
          </mxGeometry>
        </mxCell>
        <mxCell id="hdRCe8LsqeNPPLX8_d2w-2" value="Người dùng" style="shape=umlActor;verticalLabelPosition=bottom;verticalAlign=top;html=1;" parent="1" vertex="1">
          <mxGeometry x="190" y="330" width="30" height="60" as="geometry" />
        </mxCell>
        <mxCell id="hdRCe8LsqeNPPLX8_d2w-3" value="Nhân viên" style="shape=umlActor;verticalLabelPosition=bottom;verticalAlign=top;html=1;" parent="1" vertex="1">
          <mxGeometry x="130" y="480" width="30" height="60" as="geometry" />
        </mxCell>
        <mxCell id="hdRCe8LsqeNPPLX8_d2w-4" value="Khách hàng" style="shape=umlActor;verticalLabelPosition=bottom;verticalAlign=top;html=1;" parent="1" vertex="1">
          <mxGeometry x="247" y="484" width="30" height="60" as="geometry" />
        </mxCell>
        <mxCell id="hdRCe8LsqeNPPLX8_d2w-9" value="" style="endArrow=block;dashed=1;endFill=0;endSize=12;html=1;rounded=0;" parent="1" source="hdRCe8LsqeNPPLX8_d2w-3" edge="1">
          <mxGeometry width="160" relative="1" as="geometry">
            <mxPoint x="380" y="510" as="sourcePoint" />
            <mxPoint x="200" y="410" as="targetPoint" />
          </mxGeometry>
        </mxCell>
        <mxCell id="hdRCe8LsqeNPPLX8_d2w-10" value="" style="endArrow=block;dashed=1;endFill=0;endSize=12;html=1;rounded=0;" parent="1" edge="1">
          <mxGeometry width="160" relative="1" as="geometry">
            <mxPoint x="252" y="478" as="sourcePoint" />
            <mxPoint x="210" y="410" as="targetPoint" />
          </mxGeometry>
        </mxCell>
        <mxCell id="hdRCe8LsqeNPPLX8_d2w-20" value="" style="endArrow=none;html=1;rounded=0;entryX=0;entryY=0.5;entryDx=0;entryDy=0;" parent="1" source="hdRCe8LsqeNPPLX8_d2w-2" target="hdRCe8LsqeNPPLX8_d2w-12" edge="1">
          <mxGeometry width="50" height="50" relative="1" as="geometry">
            <mxPoint x="250" y="607" as="sourcePoint" />
            <mxPoint x="345" y="590" as="targetPoint" />
          </mxGeometry>
        </mxCell>
        <mxCell id="hdRCe8LsqeNPPLX8_d2w-21" value="" style="endArrow=none;html=1;rounded=0;entryX=0;entryY=0.5;entryDx=0;entryDy=0;" parent="1" source="hdRCe8LsqeNPPLX8_d2w-2" target="hdRCe8LsqeNPPLX8_d2w-13" edge="1">
          <mxGeometry width="50" height="50" relative="1" as="geometry">
            <mxPoint x="230" y="369" as="sourcePoint" />
            <mxPoint x="520" y="350" as="targetPoint" />
          </mxGeometry>
        </mxCell>
        <mxCell id="hdRCe8LsqeNPPLX8_d2w-22" value="" style="endArrow=none;html=1;rounded=0;entryX=0;entryY=0.5;entryDx=0;entryDy=0;" parent="1" source="hdRCe8LsqeNPPLX8_d2w-2" target="hdRCe8LsqeNPPLX8_d2w-14" edge="1">
          <mxGeometry width="50" height="50" relative="1" as="geometry">
            <mxPoint x="230" y="373" as="sourcePoint" />
            <mxPoint x="350" y="400" as="targetPoint" />
          </mxGeometry>
        </mxCell>
        <mxCell id="hdRCe8LsqeNPPLX8_d2w-23" value="" style="endArrow=none;html=1;rounded=0;entryX=0;entryY=0.5;entryDx=0;entryDy=0;" parent="1" source="hdRCe8LsqeNPPLX8_d2w-2" target="hdRCe8LsqeNPPLX8_d2w-15" edge="1">
          <mxGeometry width="50" height="50" relative="1" as="geometry">
            <mxPoint x="230" y="375" as="sourcePoint" />
            <mxPoint x="460" y="450" as="targetPoint" />
          </mxGeometry>
        </mxCell>
      </root>
    </mxGraphModel>
  </diagram>
</mxfile>
